<?xml version="1.0" encoding="UTF-8"?>
<svg width="300" height="300" viewBox="0 0 300 300" fill="none" xmlns="http://www.w3.org/2000/svg">
    <!-- Background -->
    <rect width="300" height="300" fill="#F3F4F6"/>
    
    <!-- Music note design -->
    <g transform="translate(75,60)" fill="#9CA3AF">
        <path d="M150 90c0-49.706-40.294-90-90-90S-30 40.294-30 90c0 49.706 40.294 90 90 90s90-40.294 90-90z" fill-opacity="0.1"/>
        <path d="M100 80V10c0-5.523-4.477-10-10-10H70c-5.523 0-10 4.477-10 10v70c-11.046 0-20 8.954-20 20s8.954 20 20 20s20-8.954 20-20V40h10v60c-11.046 0-20 8.954-20 20s8.954 20 20 20s20-8.954 20-20V80z"/>
    </g>
    
    <!-- Text -->
    <text x="150" y="250" font-family="Arial, sans-serif" font-size="16" fill="#6B7280" text-anchor="middle">
        No Artwork Available
    </text>
</svg> 